<svg width="130" height="52" viewBox="0 0 130 52" fill="none" xmlns="http://www.w3.org/2000/svg">
<path d="M62.2786 6.46807C62.2786 5.87199 62.4734 5.37908 62.8746 4.98934C63.2758 4.59959 63.8261 4.40472 64.5139 4.40472C65.1902 4.40472 65.7404 4.59959 66.1416 4.98934C66.5428 5.37908 66.7491 5.87199 66.7491 6.46807C66.7491 7.07561 66.5428 7.56852 66.1301 7.95826C65.7175 8.348 65.1787 8.54287 64.5024 8.54287C63.8261 8.54287 63.2873 8.348 62.8746 7.95826C62.4849 7.57998 62.2786 7.07561 62.2786 6.46807ZM66.5199 25.2789H62.5193V10.3311H66.5199V25.2789Z" fill="white"/>
<path d="M68.801 17.7019C68.801 15.4093 69.3513 13.5637 70.4402 12.1652C71.5292 10.7667 72.9965 10.0675 74.8535 10.0675C76.4927 10.0675 77.7651 10.6292 78.6821 11.7526L78.8426 10.3426H82.4649V24.786C82.4649 26.0928 82.1669 27.2276 81.5708 28.202C80.9748 29.1649 80.138 29.91 79.0604 30.4144C77.9829 30.9187 76.722 31.1709 75.2776 31.1709C74.1772 31.1709 73.1111 30.9531 72.0794 30.5175C71.0363 30.0819 70.2568 29.5203 69.7181 28.821L71.4834 26.3908C72.4807 27.5028 73.6843 28.0645 75.1057 28.0645C76.1603 28.0645 76.9856 27.7779 77.5817 27.2162C78.1663 26.6545 78.4643 25.8521 78.4643 24.809V24.0065C77.5473 25.0497 76.3322 25.5655 74.8306 25.5655C73.0309 25.5655 71.5865 24.8663 70.4746 23.4563C69.3627 22.0578 68.8125 20.1894 68.8125 17.8738V17.7019H68.801ZM72.7902 17.9885C72.7902 19.3411 73.0653 20.4071 73.604 21.1752C74.1428 21.9432 74.8879 22.3329 75.8393 22.3329C77.0544 22.3329 77.9256 21.8744 78.4529 20.9688V14.6756C77.9141 13.7586 77.0544 13.3115 75.8737 13.3115C74.9108 13.3115 74.1657 13.7013 73.6155 14.4922C73.0653 15.2603 72.7902 16.4409 72.7902 17.9885Z" fill="white"/>
<path d="M88.7697 10.3312L88.8957 12.0621C89.9618 10.7324 91.3947 10.0561 93.1944 10.0561C94.7763 10.0561 95.957 10.5261 96.725 11.4546C97.493 12.3831 97.8942 13.7701 97.9171 15.6271V25.279H93.928V15.7188C93.928 14.8706 93.7446 14.263 93.3778 13.8733C93.011 13.495 92.392 13.3001 91.5437 13.3001C90.4203 13.3001 89.5835 13.7816 89.0218 14.733V25.2675H85.0327V10.3312H88.7697Z" fill="white"/>
<path d="M100.485 6.46807C100.485 5.87199 100.68 5.37908 101.081 4.98934C101.482 4.59959 102.032 4.40472 102.72 4.40472C103.396 4.40472 103.947 4.59959 104.348 4.98934C104.749 5.37908 104.955 5.87199 104.955 6.46807C104.955 7.07561 104.749 7.56852 104.336 7.95826C103.924 8.348 103.385 8.54287 102.709 8.54287C102.032 8.54287 101.494 8.348 101.081 7.95826C100.691 7.57998 100.485 7.07561 100.485 6.46807ZM104.726 25.2789H100.726V10.3311H104.726V25.2789Z" fill="white"/>
<path d="M112.372 6.66296V10.3311H114.928V13.2542H112.372V20.7166C112.372 21.2668 112.475 21.6681 112.693 21.9088C112.899 22.1495 113.312 22.2641 113.908 22.2641C114.355 22.2641 114.745 22.2297 115.077 22.1724V25.1987C114.298 25.4394 113.484 25.554 112.659 25.554C109.862 25.554 108.429 24.1441 108.383 21.3127V13.2657H106.205V10.3426H108.383V6.67443H112.372V6.66296Z" fill="white"/>
<path d="M123.594 25.554C121.405 25.554 119.617 24.8777 118.241 23.5365C116.866 22.1954 116.178 20.4071 116.178 18.1604V17.7706C116.178 16.269 116.464 14.9278 117.049 13.7471C117.634 12.5664 118.448 11.6494 119.514 11.0075C120.58 10.3655 121.795 10.0446 123.147 10.0446C125.188 10.0446 126.804 10.6865 127.973 11.9818C129.143 13.2657 129.739 15.0998 129.739 17.4611V19.0889H120.224C120.35 20.0632 120.74 20.8427 121.394 21.4388C122.047 22.0234 122.861 22.3214 123.858 22.3214C125.394 22.3214 126.598 21.7598 127.457 20.6478L129.418 22.8488C128.822 23.697 128.008 24.3619 126.987 24.8319C125.979 25.3133 124.844 25.554 123.594 25.554ZM123.147 13.2771C122.356 13.2771 121.714 13.5408 121.222 14.0795C120.729 14.6183 120.419 15.3863 120.27 16.3836H125.818V16.0626C125.795 15.18 125.566 14.4922 125.096 13.9993C124.638 13.5179 123.984 13.2771 123.147 13.2771Z" fill="white"/>
<path opacity="0.5" d="M52.0157 0.35129L39.286 47.8829C39.2212 48.0986 38.9623 48.1634 38.8113 48.0123L30.2888 39.4899L36.6753 15.6701C36.74 15.4544 36.5458 15.2602 36.3301 15.3249L12.5103 21.7114L4.03104 13.2321C3.88001 13.081 3.94474 12.8221 4.1605 12.7574L51.6705 0.00607603C51.8863 -0.0370757 52.0804 0.157107 52.0157 0.35129Z" fill="#00B37E"/>
<path opacity="0.5" d="M30.2885 39.49L27.009 51.7882C26.9442 52.004 26.6853 52.0687 26.5343 51.9177L0.0823113 25.4873C-0.0687196 25.3362 -0.00399244 25.0773 0.211766 25.0126L12.51 21.7115L30.2885 39.49Z" fill="#00B37E"/>
<path d="M36.6752 15.6699L30.2887 39.4897L12.5103 21.7112L36.33 15.3247C36.5457 15.26 36.7399 15.4542 36.6752 15.6699Z" fill="#00B37E"/>
<path d="M67.6221 45.6314C67.6221 45.4246 67.576 45.2334 67.484 45.0576C67.397 44.8767 67.2153 44.7139 66.939 44.5691C66.6679 44.4192 66.2585 44.29 65.7111 44.1814C65.2506 44.0832 64.8336 43.9669 64.4601 43.8325C64.0917 43.6981 63.777 43.5353 63.5161 43.344C63.2603 43.1527 63.0633 42.9279 62.9251 42.6694C62.787 42.411 62.7179 42.1086 62.7179 41.7622C62.7179 41.4314 62.7896 41.1187 62.9328 40.824C63.0812 40.5294 63.2884 40.2683 63.5545 40.0409C63.8256 39.8134 64.1505 39.6351 64.5292 39.5059C64.9078 39.3766 65.3299 39.312 65.7955 39.312C66.4607 39.312 67.0286 39.4309 67.4993 39.6687C67.97 39.9065 68.3307 40.2244 68.5814 40.6224C68.8322 41.0153 68.9575 41.4521 68.9575 41.9328H67.5377C67.5377 41.7002 67.4686 41.4753 67.3305 41.2582C67.1974 41.0359 67.0004 40.8524 66.7395 40.7077C66.4837 40.563 66.169 40.4906 65.7955 40.4906C65.4015 40.4906 65.0818 40.5526 64.8362 40.6767C64.5957 40.7956 64.4192 40.9481 64.3066 41.1342C64.1992 41.3203 64.1454 41.5167 64.1454 41.7235C64.1454 41.8785 64.171 42.0181 64.2222 42.1422C64.2785 42.2611 64.3757 42.3722 64.5138 42.4756C64.652 42.5738 64.8464 42.6668 65.0971 42.7547C65.3478 42.8426 65.6676 42.9305 66.0564 43.0183C66.7369 43.1734 67.2972 43.3595 67.7372 43.5766C68.1772 43.7937 68.5047 44.0599 68.7196 44.3753C68.9345 44.6906 69.0419 45.0731 69.0419 45.5228C69.0419 45.8898 68.9652 46.2258 68.8117 46.5308C68.6633 46.8358 68.4459 47.0994 68.1593 47.3217C67.8779 47.5388 67.5402 47.7094 67.1463 47.8335C66.7574 47.9524 66.3199 48.0118 65.8339 48.0118C65.1022 48.0118 64.4831 47.88 63.9766 47.6164C63.4701 47.3527 63.0863 47.0116 62.8254 46.5929C62.5644 46.1742 62.434 45.7322 62.434 45.267H63.8615C63.8819 45.6598 63.9945 45.9726 64.1992 46.2052C64.4038 46.4326 64.6545 46.5954 64.9513 46.6937C65.248 46.7867 65.5422 46.8332 65.8339 46.8332C66.2227 46.8332 66.5476 46.7815 66.8086 46.6782C67.0746 46.5748 67.2767 46.4326 67.4149 46.2517C67.553 46.0708 67.6221 45.864 67.6221 45.6314Z" fill="white"/>
<path d="M72.3267 35.9468V47.8567H70.9069V35.9468H72.3267ZM71.989 43.344L71.3981 43.3207C71.4032 42.747 71.4876 42.2171 71.6513 41.7312C71.8151 41.2401 72.0453 40.8137 72.3421 40.4518C72.6388 40.09 72.9919 39.8108 73.4012 39.6144C73.8156 39.4128 74.2736 39.312 74.775 39.312C75.1843 39.312 75.5527 39.3689 75.8801 39.4826C76.2076 39.5911 76.4864 39.7669 76.7167 40.0099C76.952 40.2528 77.1311 40.5681 77.2539 40.9558C77.3767 41.3383 77.4381 41.8062 77.4381 42.3593V47.8567H76.0106V42.3438C76.0106 41.9044 75.9467 41.5529 75.8187 41.2892C75.6908 41.0204 75.5041 40.8266 75.2585 40.7077C75.0129 40.5836 74.711 40.5216 74.3529 40.5216C73.9998 40.5216 73.6775 40.5966 73.3858 40.7465C73.0993 40.8964 72.8512 41.1031 72.6414 41.3668C72.4367 41.6304 72.2756 41.9328 72.1579 42.274C72.0453 42.61 71.989 42.9667 71.989 43.344Z" fill="white"/>
<path d="M79.188 43.755V43.5766C79.188 42.9718 79.2749 42.411 79.4489 41.894C79.6229 41.3719 79.8736 40.9196 80.201 40.5371C80.5285 40.1494 80.925 39.8496 81.3906 39.6377C81.8562 39.4206 82.3781 39.312 82.9563 39.312C83.5395 39.312 84.064 39.4206 84.5296 39.6377C85.0003 39.8496 85.3994 40.1494 85.7269 40.5371C86.0594 40.9196 86.3127 41.3719 86.4867 41.894C86.6606 42.411 86.7476 42.9718 86.7476 43.5766V43.755C86.7476 44.3598 86.6606 44.9206 86.4867 45.4375C86.3127 45.9545 86.0594 46.4068 85.7269 46.7945C85.3994 47.177 85.0029 47.4768 84.5373 47.6939C84.0768 47.9058 83.5549 48.0118 82.9716 48.0118C82.3883 48.0118 81.8639 47.9058 81.3983 47.6939C80.9327 47.4768 80.5336 47.177 80.201 46.7945C79.8736 46.4068 79.6229 45.9545 79.4489 45.4375C79.2749 44.9206 79.188 44.3598 79.188 43.755ZM80.6078 43.5766V43.755C80.6078 44.1737 80.6564 44.5691 80.7536 44.9413C80.8508 45.3083 80.9966 45.634 81.1911 45.9183C81.3906 46.2026 81.6388 46.4274 81.9355 46.5929C82.2323 46.7531 82.5776 46.8332 82.9716 46.8332C83.3605 46.8332 83.7007 46.7531 83.9924 46.5929C84.2891 46.4274 84.5347 46.2026 84.7291 45.9183C84.9236 45.634 85.0694 45.3083 85.1666 44.9413C85.2689 44.5691 85.3201 44.1737 85.3201 43.755V43.5766C85.3201 43.1631 85.2689 42.7728 85.1666 42.4058C85.0694 42.0336 84.921 41.7054 84.7215 41.4211C84.527 41.1316 84.2814 40.9041 83.9847 40.7387C83.693 40.5733 83.3502 40.4906 82.9563 40.4906C82.5674 40.4906 82.2246 40.5733 81.9278 40.7387C81.6362 40.9041 81.3906 41.1316 81.1911 41.4211C80.9966 41.7054 80.8508 42.0336 80.7536 42.4058C80.6564 42.7728 80.6078 43.1631 80.6078 43.5766Z" fill="white"/>
<path d="M89.948 41.0799V51.0823H88.5205V39.4671H89.8252L89.948 41.0799ZM95.5429 43.5921V43.755C95.5429 44.3649 95.4712 44.931 95.328 45.453C95.1847 45.97 94.9749 46.4197 94.6986 46.8022C94.4275 47.1847 94.0923 47.482 93.6933 47.6939C93.2942 47.9058 92.8362 48.0118 92.3195 48.0118C91.7925 48.0118 91.3269 47.9239 90.9227 47.7482C90.5185 47.5724 90.1757 47.3166 89.8942 46.9806C89.6128 46.6446 89.3877 46.2414 89.2189 45.771C89.0551 45.3006 88.9426 44.7707 88.8812 44.1814V43.313C88.9426 42.6927 89.0577 42.137 89.2265 41.6459C89.3954 41.1548 89.618 40.7361 89.8942 40.3898C90.1757 40.0383 90.5159 39.7721 90.915 39.5911C91.3141 39.4051 91.7746 39.312 92.2964 39.312C92.8183 39.312 93.2814 39.4154 93.6856 39.6222C94.0898 39.8238 94.43 40.1132 94.7063 40.4906C94.9826 40.8679 95.1898 41.3203 95.328 41.8475C95.4712 42.3696 95.5429 42.9511 95.5429 43.5921ZM94.1154 43.755V43.5921C94.1154 43.1734 94.0719 42.7806 93.9849 42.4135C93.8979 42.0414 93.7623 41.7157 93.5781 41.4366C93.3991 41.1523 93.1688 40.93 92.8874 40.7697C92.606 40.6043 92.2709 40.5216 91.882 40.5216C91.5239 40.5216 91.2117 40.5836 90.9457 40.7077C90.6847 40.8318 90.4622 40.9998 90.278 41.2117C90.0938 41.4185 89.9429 41.6563 89.8252 41.9251C89.7126 42.1887 89.6282 42.4627 89.5719 42.747V44.7552C89.6742 45.117 89.8175 45.4582 90.0017 45.7787C90.1859 46.094 90.4315 46.3499 90.7385 46.5463C91.0455 46.7376 91.4318 46.8332 91.8974 46.8332C92.2811 46.8332 92.6111 46.7531 92.8874 46.5929C93.1688 46.4274 93.3991 46.2026 93.5781 45.9183C93.7623 45.634 93.8979 45.3083 93.9849 44.9413C94.0719 44.5691 94.1154 44.1737 94.1154 43.755Z" fill="white"/>
</svg>
